<svg viewBox="0 0 100 125"><path d="M86.4,51.5L67.1,62.7c-0.1-0.4-0.2-0.8-0.4-1.1c-0.2-0.3-0.4-0.6-0.7-0.9l-6.8-5.8c0,0,0,0,0,0c0,0,0,0,0,0l-9.7-8.1  c0,0,0,0,0,0c0,0,0,0,0,0c0,0-0.1-0.1-0.1-0.1c-0.1-0.2,0-0.5,0.2-0.6c0,0,0,0,0,0l16.6-9.6c4.1-2.3,5.4-7.5,3.1-11.6  c-0.3-0.6-0.7-1.1-1.2-1.6l19.4-11.2c0.5-0.3,0.7-0.9,0.4-1.4c-0.3-0.5-0.9-0.7-1.4-0.4L66.3,21.9c-0.9-0.6-1.9-1-3-1.1l-18.1-3.2  c-2.3-0.4-4.7,0.2-6.5,1.5c-0.1-1-0.3-2-0.7-2.8c1.4-0.3,2.4-1.6,2.4-3c0-1.7-1.4-3.1-3.1-3.1c-1.4,0-2.5,0.9-2.9,2.1  c-1.2-0.7-2.6-1.1-4.1-1.1c-4.2,0-7.6,3-8.3,7c0,0,0,0,0,0c0,0,0,0,0,0c-0.1,0.5-0.1,0.9-0.1,1.4c0,1.5,0.4,3,1.1,4.2c0,0,0,0,0,0  c0,0,0,0.1,0.1,0.1c1.5,2.5,4.2,4.1,7.3,4.1c1.2,0,2.4-0.3,3.4-0.7l-0.9,1.8l-9.9,5.6l-2.5-0.9L19,33.4c-2.1-0.8-4.4,0.3-5.2,2.4  c-0.8,2.1,0.3,4.4,2.4,5.2l1.4,0.5l9.7,3.5c0.8,0.3,1.6,0.4,2.4,0.4c2.6,0,5.1-1.5,6.3-4.1c0,0,0,0,0,0l3.7-8l2.7,0.5c0,0,0,0,0,0  c0.9,0.2,1.8,0.2,2.7,0.2c2.7,0,5.4-0.7,7.8-2.1l13.2-7.6c0.5,0.4,0.9,0.9,1.2,1.5c0.9,1.5,1.1,3.2,0.6,4.8c-0.4,1.6-1.5,3-3,3.9  l-16.6,9.6c0,0,0,0,0,0c-1.2,0.7-1.6,2.3-0.9,3.5c0.2,0.3,0.3,0.5,0.6,0.7c0,0,0,0,0,0l8.6,7.2l-4.9,2.8L43,51.1c0,0,0,0,0,0  c-0.6-0.5-1.1-1.1-1.4-1.7c-1.8-3.1-0.7-7,2.3-8.7l14.2-8.2c0.5-0.3,0.7-0.9,0.4-1.4c-0.3-0.5-0.9-0.7-1.4-0.4l-14.2,8.2  c-4.1,2.3-5.4,7.5-3.1,11.6c0.5,0.9,1.1,1.6,1.9,2.3c0,0,0,0,0,0l9.3,7.7c0,0,0,0,0,0l2.1,1.8c0.1,0.1,0.1,0.2,0.2,0.3  c0,0.1,0,0.2-0.1,0.3l-4.9,5.8c-1.2,1.4-1,3.5,0.4,4.6c0,0,0,0,0.1,0L20.7,89.4c-1.7,1-3.9,0.9-5.5-0.4c-0.5-0.4-1.1-0.3-1.5,0.2  c-0.4,0.5-0.3,1.1,0.2,1.5c1.3,1,2.8,1.5,4.3,1.5c1.2,0,2.4-0.3,3.5-0.9l30.5-17.6c0,0,0,0,0,0l1.4-0.8l7.5-4.3  c0.2-0.1,0.4-0.1,0.5-0.3l25.8-14.9c0.5-0.3,0.7-0.9,0.4-1.4C87.5,51.4,86.9,51.2,86.4,51.5z M37.3,12.2c0.6,0,1,0.5,1,1s-0.5,1-1,1  s-1-0.5-1-1S36.7,12.2,37.3,12.2z M30.2,13.2c3.5,0,6.4,2.9,6.4,6.4c0,3.1-2.2,5.6-5.1,6.2c1.9-1.3,3-3.5,2.7-5.9c0,0,0,0,0,0  c0-0.1,0-0.1-0.1-0.2c0-0.1,0-0.1-0.1-0.2c0-0.1-0.1-0.1-0.1-0.1c0,0-0.1-0.1-0.1-0.1c0,0-0.1-0.1-0.2-0.1c-0.1,0-0.1-0.1-0.2-0.1  c0,0,0,0,0,0l-9.2-1.6C25.1,15,27.5,13.2,30.2,13.2z M32.2,21c-0.1,1.3-0.8,2.6-2,3.3c-0.9,0.5-2,0.7-3,0.4c-1-0.3-1.8-0.9-2.4-1.8  c0,0,0,0,0-0.1l4.1-2.4L32.2,21z M31.3,32.5l-2,4.2c-0.1,0.2-0.3,0.3-0.5,0.2l-3.3-1.2L31.3,32.5z M51.9,30.2  c-2.7,1.6-5.9,2.1-9,1.6c0,0,0,0,0,0l-2.2-0.4l0.7-1.5c0.2-0.5,0-1.2-0.5-1.4c-0.5-0.2-1.1,0-1.4,0.5l-5.3,11.4c0,0,0,0,0,0  c-1.1,2.3-3.7,3.4-6.1,2.5l-8.7-3.2l1.3-3.6l7.4,2.7c0.3,0.1,0.6,0.2,0.9,0.2c1,0,1.9-0.5,2.3-1.5l6.7-14.4c1.2-2.6,4.1-4.1,6.9-3.6  L63,22.8c0.4,0.1,0.8,0.2,1.2,0.3L51.9,30.2z M49.9,71.7c-0.5-0.4-0.6-1.2-0.1-1.7l4.9-5.8c0.4-0.5,0.6-1.2,0.6-1.9  c-0.1-0.7-0.4-1.3-0.9-1.7l-0.9-0.8l4.9-2.8l6.3,5.3c0,0,0,0,0,0c0.1,0.1,0.2,0.2,0.3,0.3c0.2,0.3,0.2,0.6,0.1,0.9  c-0.1,0.3-0.3,0.6-0.5,0.7l-5.9,3.4l-7.3,4.2C50.8,72,50.3,72,49.9,71.7z"/><text>Created by Dimiter Petrov</text><text>from the Noun Project</text></svg>