<svg xmlns="http://www.w3.org/2000/svg" xmlns:xlink="http://www.w3.org/1999/xlink" version="1.1" x="0px" y="0px" viewBox="0 0 100 125" style="enable-background:new 0 0 100 100;" xml:space="preserve"><path d="M95.4,83.1c-0.5-0.2-1.1,0-1.3,0.5c-0.8,1.9-2.6,3.1-4.6,3.1h-4.5v-1.3h1.5c0.3,0,0.5-0.2,0.5-0.5s-0.2-0.5-0.5-0.5h-1.5  V51.8l0.9-0.3c2.1-0.8,3.1-3,2.4-5.1c-0.8-2.1-3-3.1-5.1-2.4l-1.6,0.6c0,0,0,0,0,0L75,47c-0.2,0.1-0.3,0-0.4,0  c-0.1,0-0.2-0.1-0.3-0.3c0,0,0,0,0,0L71,37.4c0,0,0,0,0,0l0,0c0,0,0-0.1,0-0.1c0.5,0.1,1,0.1,1.5,0.1c3.6,0,6.7-2.3,7.9-5.4  c0,0,0-0.1,0.1-0.1c0,0,0,0,0,0c0.3-0.9,0.5-1.8,0.5-2.8c0-1-0.2-1.9-0.5-2.8c0,0,0,0,0,0c0,0,0,0,0,0c-1.2-3.2-4.3-5.5-7.9-5.5  c-0.1,0-0.1,0-0.2,0c0-0.2,0.1-0.4,0.1-0.6c0-1.7-1.4-3.1-3.1-3.1c-0.1,0-0.3,0-0.4,0l2.7-4.7c0.3-0.5,0.1-1.1-0.4-1.4  c-0.5-0.3-1.1-0.1-1.4,0.4l-9.9,17.2c-0.1,0.1-0.2,0.2-0.4,0.2h-0.8c-0.4,0-0.7,0.2-0.9,0.5l-2.2,3.8h-3c-2.5,0-4.8,1.3-6,3.5  l-4.3,7.4l-0.8,1.5c-0.3,0.5-0.4,1-0.5,1.5H7.4v-1.5c0-0.3-0.2-0.5-0.5-0.5s-0.5,0.2-0.5,0.5v1.5H5c-0.3,0-0.5,0.2-0.5,0.5  s0.2,0.5,0.5,0.5h1.5v1.5c0,0.3,0.2,0.5,0.5,0.5s0.5-0.2,0.5-0.5v-1.5H41c0,0.2,0,0.4,0.1,0.5c0.2,0.7,0.6,1.3,1.1,1.8l-4,6.9  c-0.2,0.3-0.2,0.7,0,1c0.2,0.3,0.5,0.5,0.9,0.5h5.2c0.4,0,0.7-0.2,0.9-0.5l13.3-23.1h1.2c-0.4,0.4-0.9,0.9-1.2,1.5c0,0,0,0,0,0  L49.9,51c-1.5,2.5-1.2,5.6,0.6,7.8l-3.9,6.7c-0.1,0.1-0.1,0.2-0.3,0.2c0,0,0,0,0,0l-10.1,3.7c0,0,0,0,0,0s0,0,0,0l-9.4,3.4  c-1,0.3-1.7,1.1-2.2,2c-0.4,0.9-0.5,2-0.1,2.9c0.2,0.6,0.6,1.2,1.1,1.6c0,0,0,0,0,0l8.7,7.3H5c-0.6,0-1,0.4-1,1s0.4,1,1,1h84.6  c2.8,0,5.4-1.7,6.4-4.3C96.2,83.9,95.9,83.3,95.4,83.1z M82.6,85.4h1.5v1.3H72.8c0-0.2,0-0.3,0-0.5c0-0.9-0.5-1.7-1.2-2.1  c0,0,0,0,0,0l-5.4-3.1c-0.2-0.1-0.2-0.2-0.2-0.3c0-0.1,0-0.2,0-0.4l6.4-11.1c1.9-3.3,0.8-7.6-2.5-9.5l-6.6-3.8l3.7-6.4l0.5,1.4  c0,0,0,0,0,0c0.6,1.7,1.9,3.1,3.6,3.9c0.9,0.4,1.9,0.7,2.9,0.7c0.8,0,1.6-0.1,2.4-0.4l7.7-2.8v32.2h-1.5c-0.3,0-0.5,0.2-0.5,0.5  S82.3,85.4,82.6,85.4z M61.7,86.7c0.7-0.6,1.2-1.4,1.6-2.3c0.2-0.5,0-1.1-0.5-1.3c-0.5-0.2-1.1,0-1.3,0.5c-0.8,1.9-2.6,3.1-4.6,3.1  c-0.3,0-0.6-0.1-0.9-0.2c-0.9-0.5-1.2-1.6-0.7-2.5l4.5-7.8l4.7,2.7l-0.2,0.4c-0.3,0.6-0.4,1.2-0.2,1.9c0.2,0.6,0.6,1.2,1.2,1.5  l5.4,3.1c0,0,0,0,0,0c0.1,0.1,0.2,0.2,0.2,0.4c0,0.3-0.2,0.5-0.5,0.5H61.7z M27,77.9c-0.2-0.2-0.4-0.5-0.5-0.8  c-0.2-0.5-0.1-1,0.1-1.4c0.2-0.4,0.6-0.8,1-0.9l8.5-3.1l1.9,5.1L37.5,77c0,0,0,0,0,0c-0.6,0.2-1.1,0.7-1.4,1.3  c-0.3,0.6-0.3,1.3-0.1,1.9c0,0,0,0,0,0l2.1,5.9c0,0,0,0,0,0c0.1,0.2,0,0.3-0.1,0.5c-0.2,0.2-0.5,0.2-0.7,0.1c0,0,0,0,0,0L27,77.9  C27,77.9,27,77.9,27,77.9z M40,85.4C40,85.4,40,85.4,40,85.4l-2.1-5.9c0,0,0,0,0,0c0,0,0,0,0,0c-0.1-0.2,0-0.3,0-0.4  c0-0.1,0.1-0.2,0.3-0.3c0,0,0,0,0,0l1.4-0.5c0,0,0,0,0,0c0,0,0,0,0,0l10.7-3.9c0,0,0,0,0,0c1.9-0.7,3.4-2,4.4-3.7l3.9-6.7l4,2.3  c0,0,0,0,0,0c0.2,0.1,0.2,0.2,0.2,0.3c0,0.1,0,0.2,0,0.4l-9.2,16c-0.7,1.2-0.6,2.6,0,3.8H40.1C40.2,86.3,40.2,85.8,40,85.4z   M62.2,57.6l6.6,3.8c2.4,1.4,3.2,4.4,1.8,6.8l-5.2,9l-4.7-2.7l3.7-6.4c0.3-0.6,0.4-1.2,0.2-1.9c-0.2-0.6-0.6-1.2-1.2-1.5  c0,0,0,0,0,0l-4-2.3L62.2,57.6z M72.5,47.4C72.5,47.4,72.5,47.4,72.5,47.4c0.2,0.6,0.7,1.1,1.3,1.4c0.3,0.2,0.7,0.2,1.1,0.2  c0.3,0,0.6-0.1,0.8-0.2c0,0,0,0,0,0l5.7-2.1l1.4,3.7l-7.1,2.6c-1.2,0.5-2.6,0.4-3.8-0.2c-1.2-0.6-2.1-1.6-2.6-2.8c0,0,0,0,0,0  l-2.9-8c-0.2-0.5-0.8-0.8-1.3-0.6c-0.5,0.2-0.8,0.8-0.6,1.3L66,47l-8.7,15.2c0,0,0,0,0,0s0,0,0,0l-4.4,7.6c-0.8,1.3-2,2.3-3.4,2.8  c0,0,0,0,0,0l-9.7,3.5L37.9,71l9.2-3.4c0,0,0,0,0,0c0.5-0.2,1-0.6,1.3-1.1l4.2-7.3c0,0,0,0,0-0.1c0-0.1,0-0.1,0.1-0.2  c0-0.1,0-0.1,0-0.2c0-0.1,0-0.1,0-0.2c0-0.1,0-0.1,0-0.2c0-0.1,0-0.1-0.1-0.2c0-0.1-0.1-0.1-0.1-0.2c0,0,0,0,0-0.1  c-1.6-1.6-1.9-4.1-0.8-6l8.5-14.7c0,0,0,0,0,0c0.6-1,1.5-1.8,2.6-2.2c2.6-0.9,5.4,0.4,6.3,3l0,0L72.5,47.4z M73.9,29.5l4.6,1.7  c0,0,0,0.1,0,0.1c-0.6,1.5-2,2.5-3.6,2.6c-1.1,0.1-2.1-0.3-3-1.1c-0.6-0.6-1.1-1.3-1.2-2.1L73.9,29.5z M78.1,25.9l-8.9,3.2  c0,0,0,0,0,0c-0.1,0-0.1,0.1-0.2,0.1c-0.1,0-0.1,0.1-0.1,0.1c0,0-0.1,0.1-0.1,0.2c0,0.1-0.1,0.1-0.1,0.2c0,0.1,0,0.1,0,0.2  c0,0.1,0,0.1,0,0.2c0,0,0,0,0,0.1c0.1,1.6,0.8,3.1,2,4.2c0.5,0.5,1.1,0.8,1.8,1.1C68.8,35.4,66,32.5,66,29c0-3.6,2.9-6.4,6.4-6.4  C74.8,22.5,77,23.9,78.1,25.9z M70.3,20c0,0.6-0.5,1.1-1.1,1.1S68,20.6,68,20s0.5-1.1,1.1-1.1S70.3,19.4,70.3,20z M52.6,34.8h1.9  l-2.3,4.1c-0.5,0.9-1.4,1.7-2.4,2.1l-2.6,1c-0.2,0.1-0.4,0.2-0.5,0.4l-1.1,2l-0.8-0.5l3.8-6.5C49.2,35.8,50.8,34.8,52.6,34.8z   M61.5,29.4C61.5,29.4,61.5,29.4,61.5,29.4l4.7-8.2c0.2,0.5,0.5,0.9,0.9,1.2C65.2,23.9,64,26.3,64,29c0,1.4,0.3,2.7,0.9,3.8  c-0.1,0-0.1,0-0.2,0v0h-5.2L61.5,29.4z"/><text x="0" y="115" fill="#000000" font-size="5px" font-weight="bold" font-family="'Helvetica Neue', Helvetica, Arial-Unicode, Arial, Sans-serif">Created by Dimiter Petrov</text><text x="0" y="120" fill="#000000" font-size="5px" font-weight="bold" font-family="'Helvetica Neue', Helvetica, Arial-Unicode, Arial, Sans-serif">from the Noun Project</text></svg>