<svg xmlns="http://www.w3.org/2000/svg" xmlns:xlink="http://www.w3.org/1999/xlink" version="1.1" x="0px" y="0px" viewBox="0 0 100 125" style="enable-background:new 0 0 100 100;" xml:space="preserve"><g><path d="M4.4,28.5c0,4.7,3.8,8.4,8.4,8.4c3.6,0,6.7-2.3,7.9-5.4c0,0,0-0.1,0.1-0.1c0,0,0,0,0,0c0.3-0.9,0.5-1.8,0.5-2.8   c0-1-0.2-2-0.5-2.8c0,0,0,0,0,0c0,0,0,0,0,0c-1.2-3.2-4.3-5.5-7.9-5.5c-0.1,0-0.1,0-0.2,0c0-0.2,0.1-0.4,0.1-0.6   c0-1.7-1.4-3.1-3.1-3.1s-3.1,1.4-3.1,3.1c0,1,0.5,1.8,1.1,2.4C5.6,23.5,4.4,25.9,4.4,28.5z M9.6,18.4c0.6,0,1.1,0.5,1.1,1.1   s-0.5,1.1-1.1,1.1s-1.1-0.5-1.1-1.1S8.9,18.4,9.6,18.4z M14.3,29.1l4.6,1.7c0,0,0,0.1,0,0.1c-0.6,1.5-2,2.5-3.6,2.6   c-2,0.1-3.8-1.3-4.2-3.2L14.3,29.1z M18.5,25.4l-8.9,3.2c0,0,0,0,0,0c-0.1,0-0.1,0.1-0.2,0.1c0,0-0.1,0.1-0.1,0.1   c0,0-0.1,0.1-0.1,0.2c0,0.1-0.1,0.1-0.1,0.2c0,0.1,0,0.1,0,0.2c0,0.1,0,0.1,0,0.2c0,0,0,0,0,0c0.1,1.6,0.8,3.1,2,4.2   c0.5,0.5,1.1,0.8,1.8,1.1c-3.5-0.1-6.3-2.9-6.3-6.4c0-3.6,2.9-6.4,6.4-6.4C15.2,22.1,17.4,23.4,18.5,25.4z"/><path d="M85.6,83.3c-1.1,0.4-2.2,0.4-3.3,0L61,75.5c-0.5-0.2-1.1,0.1-1.3,0.6c-0.2,0.5,0.1,1.1,0.6,1.3l21.3,7.8   c0.7,0.3,1.5,0.4,2.3,0.4c0.8,0,1.7-0.2,2.4-0.5c0.5-0.2,0.8-0.8,0.6-1.3C86.7,83.3,86.1,83.1,85.6,83.3z"/><path d="M24.2,28c-1.9,1.5-3.2,3.9-3.2,6.6c0,4.7,3.8,8.4,8.4,8.4c3.6,0,6.7-2.3,7.9-5.4c0,0,0-0.1,0.1-0.1c0,0,0,0,0,0   c0.3-0.9,0.5-1.8,0.5-2.8s-0.2-1.9-0.5-2.8c0,0,0,0,0,0c0,0,0,0,0,0c-1.2-3.2-4.3-5.5-7.9-5.5c-0.1,0-0.1,0-0.2,0   c0-0.2,0.1-0.4,0.1-0.6c0-1.7-1.4-3.1-3.1-3.1s-3.1,1.4-3.1,3.1C23.1,26.6,23.5,27.4,24.2,28z M30.9,35.1l4.6,1.7c0,0,0,0.1,0,0.1   c-0.6,1.5-2,2.5-3.6,2.6c-2,0.1-3.8-1.3-4.2-3.2L30.9,35.1z M35.1,31.5l-8.9,3.2c0,0,0,0,0,0c-0.1,0-0.1,0.1-0.2,0.1   c-0.1,0-0.1,0.1-0.1,0.1c0,0-0.1,0.1-0.1,0.2c0,0.1-0.1,0.1-0.1,0.2c0,0.1,0,0.1,0,0.2c0,0.1,0,0.1,0,0.2c0,0,0,0,0,0   c0.1,2.4,1.7,4.5,3.8,5.3c-3.5-0.1-6.3-2.9-6.3-6.4c0-3.6,2.9-6.4,6.4-6.4C31.9,28.1,34,29.5,35.1,31.5z M26.2,24.5   c0.6,0,1.1,0.5,1.1,1.1s-0.5,1.1-1.1,1.1s-1.1-0.5-1.1-1.1S25.6,24.5,26.2,24.5z"/><path d="M40.9,34.1c-1.9,1.5-3.2,3.9-3.2,6.6c0,4.7,3.8,8.4,8.4,8.4c3.6,0,6.7-2.3,7.9-5.4c0,0,0-0.1,0.1-0.1c0,0,0,0,0,0   c0.3-0.9,0.5-1.8,0.5-2.8s-0.2-2-0.5-2.8c0,0,0,0,0,0c0,0,0,0,0,0c-1.2-3.2-4.3-5.5-7.9-5.5c-0.1,0-0.1,0-0.2,0   c0-0.2,0.1-0.4,0.1-0.6c0-1.7-1.4-3.1-3.1-3.1s-3.1,1.4-3.1,3.1C39.7,32.6,40.2,33.5,40.9,34.1z M47.6,41.2l4.6,1.7   c0,0,0,0.1,0,0.1c-0.6,1.5-2,2.5-3.6,2.6c-1.1,0.1-2.1-0.3-3-1.1c-0.6-0.6-1.1-1.3-1.2-2.1L47.6,41.2z M51.8,37.5l-8.9,3.2   c0,0,0,0,0,0c-0.1,0-0.1,0.1-0.2,0.1c0,0-0.1,0.1-0.1,0.1c0,0-0.1,0.1-0.1,0.2c0,0.1-0.1,0.1-0.1,0.2c0,0.1,0,0.1,0,0.2   c0,0.1,0,0.1,0,0.2c0,0,0,0,0,0c0.1,1.6,0.8,3.1,2,4.2c0.5,0.5,1.1,0.8,1.8,1.1c-3.5-0.1-6.3-2.9-6.3-6.4c0-3.6,2.9-6.4,6.4-6.4   C48.5,34.2,50.7,35.6,51.8,37.5z M42.9,30.5c0.6,0,1.1,0.5,1.1,1.1s-0.5,1.1-1.1,1.1s-1.1-0.5-1.1-1.1S42.2,30.5,42.9,30.5z"/><path d="M57.5,40.1c-1.9,1.5-3.2,3.9-3.2,6.6c0,4.7,3.8,8.4,8.4,8.4c3.6,0,6.7-2.3,7.9-5.4c0,0,0-0.1,0.1-0.1c0,0,0,0,0,0   c0.3-0.9,0.5-1.8,0.5-2.8s-0.2-1.9-0.5-2.8c0,0,0,0,0,0c0,0,0,0,0,0c-1.2-3.2-4.3-5.5-7.9-5.5c-0.1,0-0.1,0-0.2,0   c0-0.2,0.1-0.4,0.1-0.6c0-1.7-1.4-3.1-3.1-3.1s-3.1,1.4-3.1,3.1C56.4,38.7,56.8,39.5,57.5,40.1z M64.2,47.2l4.6,1.7   c0,0,0,0.1,0,0.1c-0.6,1.5-2,2.5-3.6,2.6c-2,0.1-3.8-1.3-4.2-3.2L64.2,47.2z M68.4,43.6l-8.9,3.2c0,0,0,0,0,0   c-0.1,0-0.1,0.1-0.2,0.1c-0.1,0-0.1,0.1-0.1,0.1c0,0-0.1,0.1-0.1,0.2c0,0.1-0.1,0.1-0.1,0.2c0,0.1,0,0.1,0,0.2c0,0.1,0,0.1,0,0.2   c0,0,0,0,0,0.1c0.1,1.6,0.8,3.1,2,4.2c0.5,0.5,1.1,0.8,1.8,1.1c-3.5-0.1-6.3-2.9-6.3-6.4c0-3.6,2.9-6.4,6.4-6.4   C65.2,40.3,67.3,41.6,68.4,43.6z M59.5,36.6c0.6,0,1.1,0.5,1.1,1.1s-0.5,1.1-1.1,1.1s-1.1-0.5-1.1-1.1S58.9,36.6,59.5,36.6z"/><path d="M93.6,76.9c0.3-1.6,0.1-3.3-0.8-4.7c-5.1-8.8-13.2-15.5-22.7-18.9c0,0-0.1,0-0.1,0c-0.1,0-0.1,0-0.2,0c-0.1,0-0.1,0-0.2,0   c-0.1,0-0.1,0-0.2,0c-0.1,0-0.1,0.1-0.2,0.1c0,0-0.1,0-0.1,0.1c-0.9,0.9-2,1.5-3.2,2c0,0,0,0,0,0c-0.1,0-0.1,0-0.2,0.1   c-2,0.7-4.1,0.7-6.1-0.1l-49-17.8c0,0,0,0,0,0c-1.2-0.4-2.4-0.4-3.5,0.2c-1.1,0.5-2,1.4-2.4,2.6c-0.2,0.5-0.3,1-0.3,1.6   c0,3.3,1,6.4,2.9,8.9c-0.6,0-1.3,0-1.9,0c0,0,0,0,0,0c-0.1,0-0.2,0-0.3,0.1c0,0-0.1,0-0.1,0C4.9,51,4.9,51,4.8,51   c-0.1,0-0.1,0.1-0.1,0.1c0,0,0,0.1-0.1,0.1c0,0.1-0.1,0.1-0.1,0.2c0,0,0,0,0,0c0,0.1,0,0.1,0,0.2c0,0.1,0,0.1,0,0.2c0,0,0,0,0,0   c0,0.1,0,0.2,0.1,0.3c0,0,0,0.1,0,0.1c0.1,0.2,0.3,0.4,0.6,0.5L28,61.1c0,0,0,0,0,0c0,0,0,0,0,0l62.5,22.7c0,0,0,0,0,0   c0.4,0.2,0.9,0.2,1.3,0.2c1.6,0,3-1,3.6-2.5C96,79.8,95.2,77.8,93.6,76.9z M91.1,73.2c0.5,0.9,0.7,2,0.6,3   c-9.5-3.3-19.4-4.9-29.4-4.7L31.5,60.3c0.3-0.3,0.5-0.7,0.7-1.1c0-0.1,0-0.2,0.1-0.3c4.8,1.3,9.8,1.9,14.7,1.9   c6.4,0,12.8-1.1,19-3.2c0.2-0.1,0.4-0.1,0.6-0.2c0.1,0,0.1,0,0.2-0.1c0,0,0,0,0,0c1.2-0.4,2.4-1.1,3.4-2   C78.9,58.7,86.4,65,91.1,73.2z M11.5,53c6.2,0.4,12.2,1.7,18,3.9c0.3,0.1,0.6,0.3,0.7,0.7c0.1,0.3,0.2,0.7,0,1   c-0.1,0.3-0.3,0.6-0.7,0.7c-0.3,0.1-0.7,0.2-1,0c0,0,0,0,0,0L11.5,53z M6.4,41.9c0-0.3,0.1-0.6,0.2-0.9c0.5-1.4,2-2.1,3.3-1.6   c0,0,0,0,0,0l49,17.8c0.1,0,0.2,0.1,0.3,0.1c-8.9,2-18.2,1.8-27.1-0.6c0,0,0-0.1,0-0.1c-0.4-0.8-1-1.4-1.8-1.7   c-6.5-2.4-13.3-3.7-20.3-4.1C7.7,48.5,6.4,45.3,6.4,41.9z M93.5,80.9c-0.3,1-1.4,1.4-2.4,1.1c0,0,0,0,0,0l-23-8.4   c8.3,0.4,16.4,2.1,24.3,4.9C93.4,78.9,93.8,79.9,93.5,80.9z"/><path d="M38.2,66c-1.1,0.4-2.2,0.4-3.3,0l-21.3-7.8c-0.5-0.2-1.1,0.1-1.3,0.6c-0.2,0.5,0.1,1.1,0.6,1.3l21.3,7.8   c0.7,0.3,1.5,0.4,2.3,0.4c0.8,0,1.7-0.2,2.4-0.5c0.5-0.2,0.8-0.8,0.6-1.3C39.3,66.1,38.7,65.8,38.2,66z"/></g><text x="0" y="115" fill="#000000" font-size="5px" font-weight="bold" font-family="'Helvetica Neue', Helvetica, Arial-Unicode, Arial, Sans-serif">Created by Dimiter Petrov</text><text x="0" y="120" fill="#000000" font-size="5px" font-weight="bold" font-family="'Helvetica Neue', Helvetica, Arial-Unicode, Arial, Sans-serif">from the Noun Project</text></svg>