<svg xmlns="http://www.w3.org/2000/svg" xmlns:xlink="http://www.w3.org/1999/xlink" version="1.1" x="0px" y="0px" viewBox="0 0 100 125" style="enable-background:new 0 0 100 100;" xml:space="preserve"><path d="M94.6,80.9c-0.5-0.2-1.1,0-1.3,0.5c-0.8,1.9-2.6,3.1-4.6,3.1h-4.5v-1.3h1.5c0.3,0,0.5-0.2,0.5-0.5s-0.2-0.5-0.5-0.5h-1.5  V49.6l0.9-0.3c2.1-0.7,3.1-3,2.4-5.1c-0.8-2.1-3-3.1-5.1-2.4l-1.6,0.6l-6.6,2.4c0,0,0,0,0,0c-0.2,0.1-0.3,0-0.4,0  c-0.1,0-0.2-0.1-0.3-0.3c0,0,0,0,0,0l-3.4-9.3c0,0,0-0.1,0-0.1c0.5,0.1,1,0.1,1.5,0.1c3.6,0,6.7-2.3,7.9-5.4c0,0,0-0.1,0.1-0.1  c0,0,0,0,0,0c0.3-0.9,0.5-1.8,0.5-2.8c0-1-0.2-1.9-0.5-2.8c0,0,0,0,0,0c0,0,0,0,0,0c-1.2-3.2-4.3-5.5-7.9-5.5c-0.1,0-0.1,0-0.2,0  c0-0.2,0.1-0.4,0.1-0.6c0-1.7-1.4-3.1-3.1-3.1s-3.1,1.4-3.1,3.1c0,1,0.5,1.8,1.1,2.4c-1.9,1.5-3.2,3.9-3.2,6.6  c0,1.4,0.3,2.7,0.9,3.8c-0.1,0-0.3,0-0.4,0c0,0,0,0,0,0H51.8c-2.5,0-4.8,1.3-6,3.5l-4.3,7.4l-0.8,1.5c-0.3,0.5-0.4,1-0.5,1.5H6.6  v-1.5c0-0.3-0.2-0.5-0.5-0.5s-0.5,0.2-0.5,0.5v1.5H4.2c-0.3,0-0.5,0.2-0.5,0.5s0.2,0.5,0.5,0.5h1.5v1.5c0,0.3,0.2,0.5,0.5,0.5  s0.5-0.2,0.5-0.5v-1.5h33.5c0,0.2,0,0.4,0.1,0.5c0.3,1,0.9,1.9,1.9,2.4c0.6,0.4,1.3,0.5,2,0.5c1.4,0,2.7-0.7,3.5-2l0.9-1.5l3.8-6.6  c0.1-0.2,0.2-0.2,0.4-0.2h2.4l-5.9,10.3c-1.5,2.5-1.2,5.6,0.6,7.8l-3.9,6.7c-0.1,0.1-0.1,0.2-0.3,0.2c0,0,0,0,0,0l-19.6,7.1  c0,0,0,0,0,0c-2,0.7-3,2.9-2.3,4.9c0.2,0.6,0.6,1.2,1.1,1.6c0,0,0,0,0,0l8.7,7.3H4.2c-0.6,0-1,0.4-1,1s0.4,1,1,1h84.6  c2.8,0,5.4-1.7,6.4-4.3C95.4,81.7,95.2,81.1,94.6,80.9z M68.4,16.6c0.6,0,1.1,0.5,1.1,1.1s-0.5,1.1-1.1,1.1s-1.1-0.5-1.1-1.1  S67.7,16.6,68.4,16.6z M81.8,83.1h1.5v1.3H72c0-0.2,0-0.3,0-0.5c0-0.9-0.5-1.7-1.2-2.2c0,0,0,0,0,0l-5.4-3.1c0,0,0,0,0,0  c-0.2-0.1-0.3-0.4-0.2-0.7l6.4-11.1c0.9-1.6,1.2-3.5,0.7-5.3s-1.6-3.3-3.2-4.2l-6.6-3.8l3.7-6.4l0.5,1.4c0,0,0,0,0,0  c1,2.8,3.7,4.6,6.5,4.6c0.8,0,1.6-0.1,2.4-0.4l7.7-2.8v32.2h-1.5c-0.3,0-0.5,0.2-0.5,0.5S81.5,83.1,81.8,83.1z M60.9,84.5  c0.7-0.6,1.2-1.4,1.6-2.3c0.2-0.5,0-1.1-0.5-1.3c-0.5-0.2-1.1,0-1.3,0.5c-0.8,1.9-2.6,3.1-4.6,3.1c-0.3,0-0.6-0.1-0.9-0.2  c-0.4-0.2-0.7-0.6-0.9-1.1c-0.1-0.5-0.1-1,0.2-1.4l4.5-7.8l4.7,2.7L63.5,77c-0.7,1.2-0.3,2.7,0.9,3.4c0,0,0,0,0,0l5.4,3.1  c0.2,0.1,0.2,0.2,0.2,0.4c0,0.3-0.2,0.5-0.5,0.5H60.9z M26.2,75.7c-0.2-0.2-0.4-0.5-0.5-0.8c-0.3-1,0.1-2,1.1-2.4c0,0,0,0,0,0  l8.5-3.1l1.9,5.1l-0.5,0.2c-0.6,0.2-1.1,0.7-1.4,1.3c-0.3,0.6-0.3,1.3-0.1,1.9c0,0,0,0,0,0l2.1,5.9c0,0,0,0,0,0c0,0,0,0,0,0  c0.1,0.2,0,0.3-0.1,0.5c-0.2,0.2-0.5,0.2-0.7,0.1c0,0,0,0,0,0L26.2,75.7C26.2,75.7,26.2,75.7,26.2,75.7z M46.4,65.4  C46.4,65.4,46.4,65.4,46.4,65.4c0.6-0.2,1-0.6,1.3-1.1l4.2-7.3c0,0,0,0,0-0.1c0-0.1,0-0.1,0.1-0.2c0-0.1,0-0.1,0-0.2  c0-0.1,0-0.1,0-0.2c0-0.1,0-0.1,0-0.2c0-0.1,0-0.1-0.1-0.2c0-0.1-0.1-0.1-0.1-0.2c0,0,0,0,0-0.1c-1.6-1.6-1.9-4.1-0.8-6l8.5-14.7  c0,0,0,0,0,0c0.6-1,1.5-1.8,2.6-2.2c2.6-0.9,5.4,0.4,6.3,3l3.4,9.3c0,0,0,0,0,0c0.2,0.6,0.7,1.1,1.3,1.4c0.3,0.2,0.7,0.2,1,0.2  c0.3,0,0.6-0.1,0.9-0.2c0,0,0,0,0,0l5.7-2.1l1.4,3.7l-7,2.6c0,0,0,0,0,0c-2.6,0.9-5.4-0.4-6.3-3c0,0,0,0,0,0l-2.9-8  c-0.2-0.5-0.8-0.8-1.3-0.6c-0.5,0.2-0.8,0.8-0.6,1.3l1.5,4.1L52.1,67.5c-0.8,1.3-2,2.3-3.4,2.8c0,0,0,0,0,0L39,73.9l-1.9-5.1  L46.4,65.4z M68.1,59.2c1.1,0.7,2,1.7,2.3,3c0.3,1.3,0.2,2.6-0.5,3.8l-5.2,9L60,72.2l3.7-6.4c0.7-1.2,0.3-2.7-0.9-3.4c0,0,0,0,0,0  l-4-2.3l2.7-4.7L68.1,59.2z M39.2,83.1C39.2,83.1,39.2,83.1,39.2,83.1l-2.1-5.9c0,0,0,0,0,0c-0.1-0.2,0-0.3,0-0.4  c0-0.1,0.1-0.2,0.3-0.3l1.4-0.5c0,0,0,0,0,0s0,0,0,0l10.7-3.9c0,0,0,0,0,0c1.9-0.7,3.4-2,4.4-3.7l3.9-6.7l4,2.3c0,0,0,0,0,0  c0.2,0.1,0.3,0.4,0.2,0.7l-9.2,16c-0.5,0.9-0.6,1.9-0.4,2.9c0.1,0.3,0.2,0.6,0.3,0.8H39.3C39.4,84,39.4,83.6,39.2,83.1z M73.1,27.3  l4.6,1.7c0,0,0,0.1,0,0.1c-0.6,1.5-2,2.5-3.6,2.6c-2,0.1-3.8-1.3-4.2-3.2L73.1,27.3z M71.6,20.3c2.4,0,4.5,1.3,5.6,3.3l-8.9,3.2  c0,0,0,0,0,0c-0.1,0-0.1,0.1-0.2,0.1c-0.1,0-0.1,0.1-0.1,0.1c0,0-0.1,0.1-0.1,0.2c0,0.1-0.1,0.1-0.1,0.2c0,0.1,0,0.1,0,0.2  c0,0.1,0,0.1,0,0.2c0,0,0,0,0,0.1c0.1,1.6,0.8,3.1,2,4.2c0.5,0.5,1.1,0.8,1.8,1.1c-3.5-0.1-6.3-2.9-6.3-6.4  C65.2,23.2,68.1,20.3,71.6,20.3z M52.6,36.5c-0.9,0-1.7,0.5-2.2,1.2l-3.3,5.8l-3.4-2l3.8-6.5c0.9-1.5,2.5-2.5,4.3-2.5h7.1  c-0.5,0.4-0.9,0.9-1.2,1.5c0,0,0,0,0,0l-1.4,2.5H52.6z"/><text x="0" y="115" fill="#000000" font-size="5px" font-weight="bold" font-family="'Helvetica Neue', Helvetica, Arial-Unicode, Arial, Sans-serif">Created by Dimiter Petrov</text><text x="0" y="120" fill="#000000" font-size="5px" font-weight="bold" font-family="'Helvetica Neue', Helvetica, Arial-Unicode, Arial, Sans-serif">from the Noun Project</text></svg>