<svg xmlns="http://www.w3.org/2000/svg" xmlns:xlink="http://www.w3.org/1999/xlink" version="1.1" x="0px" y="0px" viewBox="0 0 100 125" style="enable-background:new 0 0 100 100;" xml:space="preserve"><path d="M90.1,82.7L75.8,52.1l0.9-1.6c1.1-2,1.2-4.4,0.3-6.4c0,0,0,0,0,0l-7.2-15.4c0,0,0,0,0,0c-0.8-1.7-2.2-3-3.9-3.6  c-0.2-0.1-0.5-0.2-0.8-0.2l4.9-8.5c0.3-0.5,0.1-1.1-0.4-1.4c-0.5-0.3-1.1-0.1-1.4,0.4l-5.4,9.4c-0.5,0-1.1,0.2-1.6,0.3  c0.1-0.6,0.2-1.2,0.2-1.8c0-2.1-0.8-4.1-2.1-5.6c0.9-0.5,1.6-1.5,1.6-2.7c0-1.7-1.4-3.1-3.1-3.1s-3.1,1.4-3.1,3.1c0,0,0,0,0,0  c-0.5-0.1-1.1-0.2-1.7-0.2c-4.7,0-8.4,3.8-8.4,8.4c0,1,0.2,1.9,0.5,2.8c0,0,0,0,0,0c0,0,0,0,0,0.1c0.7,1.8,2,3.4,3.6,4.3  c0,0,0,0,0,0c0,0,0.1,0,0.1,0.1c1.2,0.7,2.6,1.1,4.1,1.1c0.9,0,1.8-0.2,2.6-0.4L45.4,49c0,0,0,0,0,0l-0.8,1.5  c-0.9,1.6-0.6,3.6,0.7,4.8L30.7,80.4c-0.9-1.6-2.6-2.7-4.6-2.7H16c0.4-1.3,1.6-2.3,3.1-2.3h7.1c0.6,0,1-0.4,1-1s-0.4-1-1-1h-7.1  c-2.6,0-4.7,1.9-5.2,4.3c-2.5,0.4-4.3,2.6-4.3,5.2c0,2.9,2.4,5.3,5.3,5.3h9.9h11.3c0.6,0,1-0.4,1-1v-4.3c0-0.6-0.4-1-1-1h-3.9  L47,56.3c0.3,0.1,0.7,0.1,1.1,0.1c1.4,0,2.7-0.7,3.5-2l0.9-1.5l7.5-12.9l5.4,11.6L60,60.5c-0.7,1.3-1.1,2.7-1.1,4.2V81l-5.2,1.9  c-0.7,0.2-1.2,0.7-1.5,1.4s-0.3,1.4-0.1,2.1c0.4,1.1,1.4,1.8,2.5,1.8h9.9c2.1,0,3.8-1.7,3.8-3.8V65.1c0-0.1,0-0.2,0.1-0.2l1.6-2.8  l9.2,19.6l-3.4,1.2c-0.7,0.2-1.2,0.7-1.5,1.4s-0.3,1.4-0.1,2.1c0.4,1.1,1.4,1.8,2.5,1.8h9.9c2.1,0,3.8-1.7,3.8-3.8  C90.4,83.8,90.3,83.2,90.1,82.7z M57.8,13.8c0.6,0,1.1,0.5,1.1,1.1s-0.5,1.1-1.1,1.1s-1.1-0.5-1.1-1.1S57.2,13.8,57.8,13.8z   M53,16.8c3.6,0,6.4,2.9,6.4,6.4c0,1.9-0.9,3.7-2.2,4.8c1.1-2.1,0.9-4.6-0.5-6.5c0,0,0,0,0,0c0-0.1-0.1-0.1-0.2-0.1  c-0.1,0-0.1-0.1-0.2-0.1c-0.1,0-0.1,0-0.2-0.1c-0.1,0-0.1,0-0.2,0c-0.1,0-0.1,0-0.2,0c-0.1,0-0.1,0-0.2,0c0,0,0,0,0,0l-8.9,3.2  c-0.1-0.4-0.1-0.8-0.1-1.2C46.6,19.7,49.5,16.8,53,16.8z M49.8,28.8l2.4-4.2l3.3-1.2c0.6,1.2,0.6,2.7-0.1,3.9  c-0.5,0.9-1.4,1.6-2.5,1.9C51.9,29.5,50.8,29.4,49.8,28.8C49.8,28.8,49.8,28.8,49.8,28.8z M35.1,86.2h-9.3v-2.3h4.7h4.7V86.2z   M66.7,63.9c-0.2,0.4-0.3,0.8-0.3,1.2v19.2c0,1-0.8,1.8-1.8,1.8h-9.9c-0.3,0-0.6-0.2-0.7-0.5c-0.1-0.2-0.1-0.4,0-0.5  c0.1-0.2,0.2-0.3,0.4-0.4l9.9-3.6c0.5-0.2,0.8-0.8,0.6-1.3c-0.2-0.5-0.8-0.8-1.3-0.6l-2.7,1V64.7c0-1.1,0.3-2.2,0.9-3.2l8.5-14.7  c0.3-0.5,0.1-1.1-0.4-1.4s-1.1-0.1-1.4,0.4l-2.2,3.7L61,37.9l2.7-4.6c0.3-0.5,0.1-1.1-0.4-1.4c-0.5-0.3-1.1-0.1-1.4,0.4L51.1,51.1  l-3.4-2l11.5-20c0.5-0.9,1.3-1.6,2.2-2c1.2-0.6,2.5-0.6,3.8-0.2c1.2,0.5,2.2,1.4,2.8,2.6c0,0,0,0,0,0l7.2,15.4c0,0,0,0,0,0  c0.7,1.5,0.6,3.2-0.2,4.6L66.7,63.9z M86.6,86.2h-9.9c-0.3,0-0.6-0.2-0.7-0.5c-0.1-0.2-0.1-0.4,0-0.5c0.1-0.2,0.2-0.3,0.4-0.4  l8.4-3.1c0.5-0.2,0.8-0.8,0.6-1.3c-0.2-0.5-0.8-0.8-1.3-0.6L81.1,81l-9.8-21.1l3.3-5.8l13.7,29.4c0.1,0.2,0.2,0.5,0.2,0.8  C88.4,85.3,87.6,86.2,86.6,86.2z"/><text x="0" y="115" fill="#000000" font-size="5px" font-weight="bold" font-family="'Helvetica Neue', Helvetica, Arial-Unicode, Arial, Sans-serif">Created by Dimiter Petrov</text><text x="0" y="120" fill="#000000" font-size="5px" font-weight="bold" font-family="'Helvetica Neue', Helvetica, Arial-Unicode, Arial, Sans-serif">from the Noun Project</text></svg>