<svg xmlns="http://www.w3.org/2000/svg" xmlns:xlink="http://www.w3.org/1999/xlink" version="1.1" x="0px" y="0px" viewBox="0 0 100 125" enable-background="new 0 0 100 100" xml:space="preserve"><g><path d="M70,87.2c-0.6,0-1,0.4-1,1c0,1-0.8,1.8-1.8,1.8H52.6c-0.6,0-1,0.4-1,1s0.4,1,1,1h14.5c2.1,0,3.8-1.7,3.8-3.8   C71,87.6,70.5,87.2,70,87.2z"/><path d="M10.5,46.6c-0.5-0.1-0.9-0.4-1.1-0.9c-0.2-0.4-0.3-0.9-0.2-1.4l3.8-14c0.1-0.5-0.2-1.1-0.7-1.2c-0.5-0.1-1.1,0.2-1.2,0.7   l-3.8,14c-0.3,1-0.1,2,0.4,2.9c0.5,0.9,1.3,1.5,2.3,1.8c0.1,0,0.2,0,0.3,0c0.4,0,0.8-0.3,1-0.7C11.3,47.3,11,46.7,10.5,46.6z"/><path d="M89.9,28.8L73,24.2c2.9-1.4,4.9-4.3,4.9-7.6c0-0.2,0-0.4,0-0.6c0,0,0-0.1,0-0.1c0,0,0,0,0,0c-0.2-2-1.1-3.8-2.4-5.2   c0,0,0,0,0,0s0,0,0,0c-1.5-1.5-3.6-2.5-5.9-2.5c-1.9,0-3.6,0.6-5,1.7C63.9,8.7,62.8,8,61.6,8c-1.7,0-3.1,1.4-3.1,3.1   c0,1.6,1.3,3,2.9,3.1C61.1,15,61,15.8,61,16.6c0,1.8,0.6,3.4,1.5,4.8l-19.7-5.3c-1-0.3-2.1-0.1-3,0.4c-0.9,0.5-1.6,1.4-1.9,2.4   c-0.6,2.1,0.7,4.3,2.8,4.9l16.6,4.4L48,37.7c-0.3,0.3-0.5,0.5-0.7,0.8l-23.1-6.2l-5.1-1.4c-1-0.3-2-0.1-2.9,0.4   c-0.9,0.5-1.5,1.3-1.8,2.3l-3,11.3c-0.2,0.6-0.1,1.3,0.2,1.9c0.3,0.6,0.9,1,1.5,1.2c0.2,0.1,0.4,0.1,0.6,0.1c0.7,0,1.3-0.3,1.8-0.7   l5.8-5.8c0.1-0.1,0.3-0.2,0.5-0.1l25.5,6.8l4.4,16.3c0,0,0,0.1,0,0.1v14v5.3c0,2.1,1.7,3.8,3.8,3.8h11.7c1.4,0,2.5-1.1,2.5-2.5   c0-0.9-0.5-1.7-1.2-2.2L61.3,79c0,0,0,0,0,0c-0.1-0.1-0.2-0.2-0.2-0.4V64.4c0-0.7-0.1-1.5-0.3-2.2c0,0,0,0,0,0l-3.7-13.7   c0-0.2,0-0.3,0.1-0.5l13.6-13.6c0.6-0.6,1.1-1.4,1.5-2.2l15.5,4.2c0.3,0.1,0.7,0.1,1,0.1c0.7,0,1.4-0.2,2-0.5   c0.9-0.5,1.6-1.4,1.9-2.4C93.3,31.5,92,29.3,89.9,28.8z M21.3,39.4c-0.5,0.1-1,0.3-1.4,0.7l-5.8,5.8C14,46,13.8,46.1,13.6,46   c-0.3-0.1-0.4-0.3-0.3-0.6l3-11.3c0.1-0.5,0.4-0.9,0.9-1.1c0.3-0.2,0.6-0.2,0.9-0.2c0.2,0,0.3,0,0.5,0.1l4.2,1.1L21.3,39.4z    M23.3,39.8l1.4-5.3l21.7,5.8c-0.4,1.3-0.5,2.7-0.2,4.1l0.4,1.6L23.3,39.8z M75.8,16c0,0,0,0.1,0,0.1c0.1,1.6-0.7,3.1-2.2,3.9   c-1.8,0.9-3.9,0.4-5.1-1.1l2.4-2.4L75.8,16z M69.4,10.2c1.4,0,2.7,0.5,3.8,1.2l-6.7,6.7c0,0,0,0,0,0c0,0.1-0.1,0.1-0.1,0.2   c0,0.1-0.1,0.1-0.1,0.2c0,0.1,0,0.1,0,0.2c0,0.1,0,0.1,0,0.2c0,0.1,0,0.1,0,0.2c0,0.1,0,0.1,0.1,0.2c0,0,0,0,0,0   c1.1,2.1,3.2,3.2,5.4,3.2c0.1,0,0.2,0,0.3,0c-0.8,0.4-1.7,0.6-2.6,0.6c-3.6,0-6.4-2.9-6.4-6.4S65.9,10.2,69.4,10.2z M61.6,12.2   c-0.6,0-1.1-0.5-1.1-1.1s0.5-1.1,1.1-1.1s1.1,0.5,1.1,1.1S62.2,12.2,61.6,12.2z M60.3,80.8l7.1,4.1c0.2,0.1,0.2,0.2,0.2,0.4   c0,0.3-0.2,0.5-0.5,0.5H55.4c-1,0-1.8-0.8-1.8-1.8v-4.3h5.7C59.5,80.1,59.8,80.5,60.3,80.8z M69.4,33L55.8,46.7   c-0.6,0.6-0.9,1.5-0.6,2.4l3.7,13.7c0,0,0,0,0,0c0.1,0.5,0.2,1.1,0.2,1.7v13.2h-5.4v-13c0-0.2,0-0.4-0.1-0.6l-5.4-20.1   c-0.5-1.7,0-3.5,1.3-4.8l10.2-10.2l4.7,1.3c0.1,0,0.2,0,0.3,0c0.4,0,0.8-0.3,1-0.7c0.1-0.5-0.2-1.1-0.7-1.2l-20.9-5.6l1-3.8l22.3,6   c0,0,0,0,0,0c0.8,0.2,1.6,0.7,2.2,1.3C71.4,28,71.4,31.1,69.4,33z M85.8,33.8l-12.9-3.5c0.2-1.5-0.1-3-0.9-4.3l14.9,4L85.8,33.8z"/></g><text x="0" y="115" fill="#000000" font-size="5px" font-weight="bold" font-family="'Helvetica Neue', Helvetica, Arial-Unicode, Arial, Sans-serif">Created by Dimiter Petrov</text><text x="0" y="120" fill="#000000" font-size="5px" font-weight="bold" font-family="'Helvetica Neue', Helvetica, Arial-Unicode, Arial, Sans-serif">from the Noun Project</text></svg>