<svg xmlns="http://www.w3.org/2000/svg" xmlns:xlink="http://www.w3.org/1999/xlink" version="1.1" x="0px" y="0px" viewBox="0 0 100 125" enable-background="new 0 0 100 100" xml:space="preserve"><path d="M94.2,65.2l-10.6-3.9c0,0,0,0,0,0s0,0,0,0L27.6,41c-1-0.4-2.1-0.5-3.2-0.3c0.3-0.9,0.5-1.8,0.5-2.7c0-2.5-1.1-4.8-2.9-6.3  c0,0-0.1-0.1-0.1-0.1c0,0,0,0,0,0c-1.5-1.2-3.3-2-5.4-2c-4.5,0-8.1,3.5-8.4,7.9c-0.3-0.1-0.5-0.1-0.8-0.1c-1.7,0-3.1,1.4-3.1,3.1  s1.4,3.1,3.1,3.1c0.9,0,1.7-0.4,2.2-0.9c1.5,2.3,4.1,3.8,7,3.8c1,0,2-0.2,2.9-0.5c-0.2,1.1,0,2.2,0.4,3.2L19,49  c-0.3-0.1-0.7,0-0.9,0.2c-0.2,0.2-0.4,0.6-0.3,0.9c0.4,2.3,2.1,4.3,4.3,5.1c0,0,0,0,0,0l3.1,1.1l-0.8,2.1l-3.1-1.1  c-0.5-0.2-1.1,0.1-1.3,0.6c-0.2,0.5,0.1,1.1,0.6,1.3l4,1.5l0,0h0l14.9,5.4c0,0,0,0,0,0c0,0,0,0,0,0l4,1.5c2.3,0.8,4.7,1.3,7.1,1.3  c4.7,0,9.3-1.6,13.1-4.6l16.6,6c0,0,0,0,0,0c0.4,0.2,0.9,0.2,1.3,0.2h11.6c1.5,0,2.7-1.2,2.7-2.7C96,66.6,95.2,65.6,94.2,65.2z   M17.4,36.8l3.1-3.7c0,0,0.1,0.1,0.1,0.1c1.2,1.1,1.6,2.7,1.2,4.2c-0.6,1.9-2.5,3.1-4.4,2.9V36.8z M7.2,41.6c-0.6,0-1.1-0.5-1.1-1.1  s0.5-1.1,1.1-1.1s1.1,0.5,1.1,1.1S7.8,41.6,7.2,41.6z M10,38c0-3.2,2.4-5.9,5.4-6.4v9.4c0,0,0,0,0,0c0,0.1,0,0.1,0,0.2  c0,0.1,0,0.1,0.1,0.2c0,0.1,0.1,0.1,0.1,0.2c0,0.1,0.1,0.1,0.1,0.1c0,0,0.1,0.1,0.1,0.1c0.1,0,0.1,0.1,0.2,0.1c0,0,0,0,0,0  c0.6,0.2,1.2,0.3,1.8,0.3c1,0,2-0.2,2.8-0.7c0.6-0.3,1.2-0.8,1.7-1.3c-0.9,2.4-3.3,4.1-6,4.1C12.9,44.4,10,41.5,10,38z M21.5,45.4  c0.4-1.1,1.2-1.9,2.2-2.4c1-0.5,2.2-0.5,3.2-0.1l55,20L80.8,66c-0.2,0.5,0.1,1.1,0.6,1.3c0.1,0,0.2,0.1,0.3,0.1  c0.4,0,0.8-0.3,0.9-0.7l1.1-3.1l9.7,3.5c0.3,0.1,0.5,0.4,0.5,0.7c0,0.4-0.3,0.7-0.7,0.7H81.6c-0.2,0-0.4,0-0.6-0.1c0,0,0,0,0,0  L52.9,58.1c0.1-0.7,0-1.4-0.3-2.1c-0.4-1-1.2-1.7-2.2-2.1l-1.6-0.6c0,0,0,0,0,0l-21.3-7.8c-0.5-0.2-1.1,0.1-1.3,0.6  c-0.2,0.5,0.1,1.1,0.6,1.3L47.1,55l-0.4,1l-24.1-6.1C21.4,48.7,20.9,46.9,21.5,45.4z M27,57l13.1,4.8l-0.8,2.1l-13.1-4.8L27,57z   M44.2,65.7l-3.1-1.1l0.8-2.1l3.1,1.1c1.1,0.4,2.2,0.6,3.3,0.6c2.6,0,5.2-1.1,7-3l6.1,2.2C56.5,66.9,50,67.8,44.2,65.7z"/><text x="0" y="115" fill="#000000" font-size="5px" font-weight="bold" font-family="'Helvetica Neue', Helvetica, Arial-Unicode, Arial, Sans-serif">Created by Dimiter Petrov</text><text x="0" y="120" fill="#000000" font-size="5px" font-weight="bold" font-family="'Helvetica Neue', Helvetica, Arial-Unicode, Arial, Sans-serif">from the Noun Project</text></svg>