<svg xmlns="http://www.w3.org/2000/svg" xmlns:xlink="http://www.w3.org/1999/xlink" version="1.1" x="0px" y="0px" viewBox="0 0 100 125" enable-background="new 0 0 100 100" xml:space="preserve"><path d="M93.4,64.7c1.2-1.5,2-3.3,2-5.4c0-4.7-3.8-8.4-8.4-8.4c-0.1,0-0.1,0-0.2,0c0-0.2,0.1-0.4,0.1-0.6c0-1.7-1.4-3.1-3.1-3.1  s-3.1,1.4-3.1,3.1c0,1,0.5,1.8,1.1,2.4c-0.6,0.5-1.2,1.1-1.6,1.7c-0.7-1.5-1.9-2.6-3.5-3.1L59.3,45c0,0,0,0,0,0  c-2.1-0.8-4.5-0.4-6.4,0.9L16.1,32.5c0,0,0,0,0,0c-1.4-0.5-3-0.2-4,0.9l-6.7,6.7c0,0,0,0,0,0c-0.5,0.5-0.7,1.1-0.7,1.8  c0,0.7,0.3,1.3,0.7,1.8c0.5,0.5,1.1,0.7,1.8,0.7c0.2,0,0.4,0,0.6-0.1l8-1.9l18.4,6.7c0.5,1.8,1.7,3.3,3.3,4.2  c-0.4,2.5,1,4.9,3.4,5.8l22.5,8.2c0.6,0.2,1.2,0.3,1.8,0.3c1.8,0,3.6-1,4.5-2.6c0.7,0.2,1.5,0.3,2.2,0.3c1.3,0,2.6-0.3,3.8-0.9  c1.3-0.6,2.4-1.5,3.2-2.6c1.1,3.4,4.3,5.9,8.1,5.9c2.4,0,4.6-1.1,6.2-2.7C93.2,64.9,93.3,64.9,93.4,64.7  C93.4,64.7,93.4,64.7,93.4,64.7z M83.7,49.2c0.6,0,1.1,0.5,1.1,1.1s-0.5,1.1-1.1,1.1s-1.1-0.5-1.1-1.1S83.1,49.2,83.7,49.2z   M84.7,60.3h3.5l3.7,3.1c0,0-0.1,0.1-0.1,0.1c-1.1,1.2-2.7,1.6-4.2,1.2C85.6,64.2,84.4,62.3,84.7,60.3z M15.8,36.1c-0.6,0-1,0.4-1,1  v3.5l-7.6,1.8c-0.2,0-0.3,0-0.5-0.1c-0.1-0.1-0.1-0.3-0.1-0.3s0-0.2,0.1-0.3c0,0,0,0,0,0l6.7-6.7c0.5-0.5,1.3-0.7,1.9-0.4  c0,0,0,0,0,0l33.2,12.1c-1.4,0.2-2.6,1.1-3.1,2.5c-0.2,0.7-0.3,1.4-0.2,2l-10-3.6l-18.6-6.8v-3.6C16.8,36.5,16.3,36.1,15.8,36.1z   M58.6,46.9C58.6,46.9,58.6,46.9,58.6,46.9l17.3,6.3c1.1,0.4,1.9,1.2,2.4,2.2c0.5,1,0.5,2.2,0.1,3.2c0,0,0,0,0,0  c-0.4,1.1-1.2,1.9-2.2,2.4c-1,0.5-2.2,0.5-3.2,0.1l-22-8l1.4-3.7l19,6.9c0.1,0,0.2,0.1,0.3,0.1c0.4,0,0.8-0.3,0.9-0.7  c0.2-0.5-0.1-1.1-0.6-1.3l-18.4-6.7C55.1,46.6,57,46.3,58.6,46.9z M39.4,54l15.1,5.5l-0.8,2.1l-12.2-4.4  C40.2,56.7,39.3,55.4,39.4,54z M66.5,65.2c-0.8,0.4-1.7,0.4-2.5,0.1l-8.4-3.1l0.8-2.1l11.3,4.1C67.3,64.7,66.9,65,66.5,65.2z   M80.5,59.3c0-3.6,2.9-6.4,6.4-6.4c3.2,0,5.9,2.4,6.4,5.4h-9.4c0,0,0,0,0,0c-0.1,0-0.1,0-0.2,0c-0.1,0-0.1,0-0.2,0  c-0.1,0-0.1,0.1-0.2,0.1c0,0-0.1,0.1-0.1,0.1c0,0-0.1,0.1-0.1,0.2c0,0.1-0.1,0.1-0.1,0.2c0,0,0,0,0,0c-0.5,1.6-0.3,3.2,0.4,4.7  c0.3,0.6,0.8,1.2,1.3,1.7C82.2,64.4,80.5,62.1,80.5,59.3z"/><text x="0" y="115" fill="#000000" font-size="5px" font-weight="bold" font-family="'Helvetica Neue', Helvetica, Arial-Unicode, Arial, Sans-serif">Created by Dimiter Petrov</text><text x="0" y="120" fill="#000000" font-size="5px" font-weight="bold" font-family="'Helvetica Neue', Helvetica, Arial-Unicode, Arial, Sans-serif">from the Noun Project</text></svg>