<svg xmlns="http://www.w3.org/2000/svg" xmlns:xlink="http://www.w3.org/1999/xlink" version="1.1" x="0px" y="0px" viewBox="0 0 100 125" style="enable-background:new 0 0 100 100;" xml:space="preserve"><path d="M93.2,51.6c-0.5,0-1,0.4-1,1c-0.1,2-1.4,3.8-3.3,4.4L50.1,71.1c0-0.2,0-0.3-0.1-0.5c-0.2-0.6-0.8-1-1.4-1h-1.9l33.4-33.4  c1.5-1.5,2.2-3.6,2-5.6c1.1,0.5,2.3,0.8,3.6,0.8c2.4,0,4.6-1,6.2-2.7c0.1-0.1,0.2-0.2,0.3-0.3c0,0,0,0,0,0c1.2-1.5,2-3.3,2-5.4  c0-4.7-3.8-8.4-8.4-8.4c-0.1,0-0.1,0-0.2,0c0-0.2,0.1-0.4,0.1-0.6c0-1.7-1.4-3.1-3.1-3.1s-3.1,1.4-3.1,3.1c0,1,0.5,1.8,1.1,2.4  c-1.9,1.5-3.2,3.9-3.2,6.6c0,0.6,0.1,1.2,0.2,1.8c-1.5-0.5-3.1-0.5-4.5,0c0,0-0.1,0-0.1,0c0,0,0,0,0,0c-0.9,0.3-1.8,0.9-2.5,1.6  l-0.9,0.9l-18.8,6.8c0,0,0,0,0,0L49,34.8c-2.1,0.8-3.1,3-2.4,5.1c0.4,1,1.1,1.8,2.1,2.2c0.5,0.2,1.1,0.4,1.7,0.4  c0.5,0,0.9-0.1,1.4-0.2l1.6-0.6l3.1-1.1c-1.3,2-1.6,4.5-0.6,6.7L31,72c0,0,0,0,0,0l-0.6,0.6c-0.7,0.7-1.1,1.7-1.1,2.7s0.4,2,1.1,2.7  c0.1,0.1,0.1,0.1,0.2,0.2L6.3,87.1c-0.5,0.2-0.8,0.8-0.6,1.3C5.8,88.7,6.2,89,6.6,89c0.1,0,0.2,0,0.3-0.1l82.6-30.1  c2.7-1,4.5-3.4,4.6-6.2C94.1,52.1,93.7,51.6,93.2,51.6z M82.4,12.9c0.6,0,1.1,0.5,1.1,1.1s-0.5,1.1-1.1,1.1s-1.1-0.5-1.1-1.1  S81.8,12.9,82.4,12.9z M83.4,24h3.5l3.7,3.1c0,0-0.1,0.1-0.1,0.1c-1.1,1.2-2.7,1.7-4.3,1.2c-1-0.3-1.9-1-2.4-2  C83.4,25.7,83.3,24.8,83.4,24z M85.7,16.6c3.2,0,5.9,2.4,6.4,5.4h-9.4c0,0,0,0,0,0c-0.1,0-0.1,0-0.2,0c-0.1,0-0.1,0-0.2,0  c-0.1,0-0.1,0.1-0.2,0.1c0,0-0.1,0.1-0.1,0.1c0,0-0.1,0.1-0.1,0.2c0,0.1-0.1,0.1-0.1,0.2c0,0,0,0,0,0c-0.5,1.6-0.3,3.2,0.4,4.7  c0.3,0.6,0.8,1.2,1.3,1.7c-2.4-0.9-4.1-3.3-4.1-6C79.2,19.4,82.1,16.6,85.7,16.6z M73.9,26.6c1.2-0.3,2.5,0.4,2.9,1.6  c0.5,1.3-0.2,2.8-1.5,3.3l-21.7,7.9l-1.4-3.7l18-6.6c0,0,0,0,0,0c0.1,0,0.1-0.1,0.2-0.1c0.1,0,0.1-0.1,0.2-0.1c0,0,0,0,0,0l1.1-1.1  C72.3,27.2,73.1,26.8,73.9,26.6z M57.9,46.9c-1.1-1.9-0.8-4.4,0.8-6l1.8-1.8L76,33.4c2.2-0.8,3.4-3.2,2.8-5.5c1.8,1.9,1.8,5-0.1,6.9  L43.8,69.8c-3.6,0.6-6.6,3-7.8,6.5l-1,0.4c-0.2-1.4-0.9-2.8-1.8-3.9l24.6-24.6C58.1,47.8,58.1,47.3,57.9,46.9z"/><text x="0" y="115" fill="#000000" font-size="5px" font-weight="bold" font-family="'Helvetica Neue', Helvetica, Arial-Unicode, Arial, Sans-serif">Created by Dimiter Petrov</text><text x="0" y="120" fill="#000000" font-size="5px" font-weight="bold" font-family="'Helvetica Neue', Helvetica, Arial-Unicode, Arial, Sans-serif">from the Noun Project</text></svg>