<svg xmlns="http://www.w3.org/2000/svg" xmlns:xlink="http://www.w3.org/1999/xlink" version="1.1" x="0px" y="0px" viewBox="0 0 100 125" style="enable-background:new 0 0 100 100;" xml:space="preserve"><g><path d="M76.7,75.9l-2.4-2.4c1.2-1.8,1-4.3-0.6-5.9l-3-3l-14-14c-0.9-0.9-1.5-2.3-1.4-3.6l0.1-3l3.3-3.3c1.1-1.1,1.7-2.5,1.7-4   c0-1.5-0.6-2.9-1.7-4c-0.9-0.9-2-1.4-3.2-1.6c0.8-1.3,1.2-2.8,1.2-4.3c0-3.7-2.4-6.9-5.8-8c0.3-0.5,0.4-1,0.4-1.6   c0-1.7-1.4-3.1-3.1-3.1s-3.1,1.4-3.1,3.1c0,0.6,0.2,1.1,0.4,1.6c-3.3,1.1-5.8,4.3-5.8,8c0,0.2,0,0.5,0,0.7L33,20.6l-1.2-1.2   c-1.5-1.5-4.1-1.5-5.6,0c-0.8,0.8-1.2,1.7-1.2,2.8s0.4,2.1,1.2,2.8l1.2,1.2l7.3,7.3c-0.7,0.2-1.3,0.5-1.8,1   c-0.8,0.8-1.2,1.7-1.2,2.8s0.4,2.1,1.2,2.8l1.2,1.2l6.3,6.3l-5,10.7c-1,2-1.1,4.3-0.3,6.5c0,0,0,0,0,0l3.5,9.7l-2.7,4.7   c-0.7,1.2-0.3,2.7,0.9,3.4c0.4,0.2,0.8,0.3,1.2,0.3s0.9-0.1,1.2-0.3l7.9-4.6c1.3-0.8,1.9-2.3,1.4-3.8l-4.4-12.1c0,0,0,0,0,0   c0-0.1,0-0.3,0-0.4c0,0,0,0,0,0l3-6.4c0,0,0,0,0,0c0-0.1,0.1-0.1,0.1-0.1c0.2-0.2,0.5-0.2,0.7,0l16,16l3,3c0.9,0.9,2.1,1.4,3.3,1.4   c0.9,0,1.8-0.3,2.6-0.8l2.4,2.4c0.2,0.2,0.5,0.3,0.7,0.3s0.5-0.1,0.7-0.3C77.1,76.9,77.1,76.3,76.7,75.9z M58.2,36.7   c0,1-0.4,1.9-1.1,2.6l-3.6,3.6c0,0,0,0-0.1,0.1l-4,4c-1.9,1.9-5.1,1.9-7,0l-6.3-6.3l2.8-2.8l5.3,5.3c0.5,0.5,1.1,0.7,1.8,0.7   c0.7,0,1.3-0.3,1.8-0.7l5-5c0.4-0.4,0.4-1,0-1.4s-1-0.4-1.4,0l-5,5c-0.1,0.1-0.3,0.1-0.3,0.1c-0.1,0-0.2,0-0.3-0.1L29.5,25.6   l2.8-2.8l9.9,9.9c0,0,0,0,0,0c1.5,1.5,3.6,2.5,5.9,2.5c2.2,0,4.1-0.8,5.6-2.2h0.7c1,0,1.9,0.4,2.6,1.1S58.2,35.7,58.2,36.7z    M44.1,29.1h2.6c0-0.8,0.7-1.5,1.5-1.5s1.5,0.7,1.5,1.5h2.6c0,2.3-1.8,4.1-4.1,4.1S44.1,31.3,44.1,29.1z M47.1,17.2   c0-0.6,0.5-1.1,1.1-1.1s1.1,0.5,1.1,1.1s-0.5,1.1-1.1,1.1S47.1,17.8,47.1,17.2z M48.2,20.3c3.6,0,6.4,2.9,6.4,6.4   c0,0.7-0.1,1.4-0.4,2.1c-0.1-3.2-2.8-5.8-6.1-5.8c-3.3,0-6,2.6-6.1,5.8c-0.2-0.7-0.4-1.4-0.4-2.1C41.7,23.2,44.6,20.3,48.2,20.3z    M46.2,76.4L38.3,81c-0.2,0.1-0.3,0.1-0.5,0c-0.2-0.1-0.3-0.4-0.2-0.7l2.6-4.6h6.4C46.7,76,46.5,76.3,46.2,76.4z M45.9,53.9   c-0.2,0.2-0.4,0.4-0.5,0.7c0,0,0,0,0,0l-3,6.4c0,0,0,0,0,0c-0.3,0.6-0.3,1.3-0.1,1.9c0,0,0,0,0,0l3.9,10.8h-5.8L37,64.2   c0,0,0,0,0,0c-0.6-1.6-0.5-3.4,0.2-4.9l4.7-10.2c1.2,0.8,2.6,1.3,4.1,1.3c1.9,0,3.6-0.7,4.9-2l2.3-2.3l0,0.9c0,1.9,0.7,3.7,2,5.1   l13.3,13.3l-3.8,3.8L49.4,53.9C48.4,52.9,46.8,52.9,45.9,53.9z M68.4,72.9l-2.3-2.3l3.8-3.8l2.3,2.3c0.5,0.5,0.8,1.2,0.8,1.9   s-0.3,1.4-0.8,1.9C71.2,73.9,69.5,73.9,68.4,72.9z"/><path d="M51.1,76.9l-16,9.2c-0.5,0.3-0.6,0.9-0.4,1.4c0.2,0.3,0.5,0.5,0.9,0.5c0.2,0,0.3,0,0.5-0.1l16-9.2c0.5-0.3,0.6-0.9,0.4-1.4   C52.1,76.8,51.5,76.6,51.1,76.9z"/></g><text x="0" y="115" fill="#000000" font-size="5px" font-weight="bold" font-family="'Helvetica Neue', Helvetica, Arial-Unicode, Arial, Sans-serif">Created by Dimiter Petrov</text><text x="0" y="120" fill="#000000" font-size="5px" font-weight="bold" font-family="'Helvetica Neue', Helvetica, Arial-Unicode, Arial, Sans-serif">from the Noun Project</text></svg>