<svg xmlns="http://www.w3.org/2000/svg" xmlns:xlink="http://www.w3.org/1999/xlink" version="1.1" x="0px" y="0px" viewBox="0 0 50 50" enable-background="new 0 0 50 40" xml:space="preserve"><g><circle fill="#000000" cx="9.7" cy="7" r="4.6"/><circle fill="#000000" cx="9.7" cy="19.7" r="4.6"/><circle fill="#000000" cx="9.7" cy="32.8" r="4.6"/><g><path fill="#000000" d="M19.6,10.1h25c0.2,0,0.4-0.1,0.6-0.2c0.2-0.2,0.2-0.4,0.2-0.6l0-4.3c0-0.5-0.4-0.8-0.8-0.8h-25    c-0.5,0-0.8,0.4-0.8,0.8v4.3C18.8,9.7,19.2,10.1,19.6,10.1z"/><path fill="#000000" d="M44.7,16.7h-25c-0.5,0-0.8,0.4-0.8,0.8v4.3c0,0.5,0.4,0.8,0.8,0.8h25c0.2,0,0.4-0.1,0.6-0.2    c0.2-0.2,0.2-0.4,0.2-0.6l0-4.3C45.5,17.1,45.1,16.7,44.7,16.7z"/><path fill="#000000" d="M44.7,29.8h-25c-0.5,0-0.8,0.4-0.8,0.8v4.3c0,0.5,0.4,0.8,0.8,0.8h25c0.2,0,0.4-0.1,0.6-0.2    c0.2-0.2,0.2-0.4,0.2-0.6l0-4.3C45.5,30.1,45.1,29.8,44.7,29.8z"/></g></g><text x="0" y="55" fill="#000000" font-size="5px" font-weight="bold" font-family="'Helvetica Neue', Helvetica, Arial-Unicode, Arial, Sans-serif">Created by Rui</text><text x="0" y="60" fill="#000000" font-size="5px" font-weight="bold" font-family="'Helvetica Neue', Helvetica, Arial-Unicode, Arial, Sans-serif">from the Noun Project</text></svg>